<?xml version="1.0" encoding="UTF-8"?>
<svg id="Calque_1" data-name="Calque 1" xmlns="http://www.w3.org/2000/svg" viewBox="0 0 232.6 177.32">
    <defs>
        <style>
            .cls-1, g {
            fill: #FFFFFF;
            }
        </style>
    </defs>
    <path class="cls-1"
          d="m101.03,0h-14.56c-1.68,0-3,1.36-3,3v101.8c0,1.68,1.36,3,3,3h14.56c26.36,0,47.8-21.44,47.8-47.8S127.39,12.2,101.03,12.2h-3c-1.68,0-3,1.36-3,3v77.6c0,1.68,1.36,3,3,3h3c19.76,0,35.8-16.08,35.8-35.8,0-16.6-11.28-30.92-27.44-34.8-1.6-.4-3.2.6-3.6,2.2s.6,3.2,2.2,3.6c13.44,3.2,22.84,15.16,22.84,29,0,16.44-13.36,29.8-29.8,29.8V18.16c23.08,0,41.84,18.76,41.84,41.84s-18.76,41.84-41.84,41.84h-11.6V6h11.6c29.76,0,54,24.2,54,54s-24.2,54-54,54c-.16,0-.32,0-.48.04h-23.52V15.2c0-1.68-1.32-3-3-3s-3,1.36-3,3v101.8c0,1.68,1.36,3,3,3h27c33.08,0,60-26.92,60-60S134.11,0,101.03,0Z"/>
    <g>
        <path d="m7.68,168.99c-2.37,0-4.56-.53-6.57-1.59l-1.1-8.57h.49c.92,3.16,2.01,5.51,3.25,7.06,1.24,1.55,2.73,2.33,4.47,2.33,1.5,0,2.61-.47,3.35-1.41.73-.94,1.1-2.09,1.1-3.45s-.38-2.71-1.14-4.04c-.76-1.33-1.68-2.57-2.76-3.7-1.08-1.13-2.15-2.27-3.23-3.43-1.08-1.16-1.99-2.46-2.76-3.9-.76-1.44-1.14-2.93-1.14-4.45,0-2.04.64-3.77,1.92-5.19,1.28-1.42,3.24-2.12,5.88-2.12,2.37,0,4.57.68,6.61,2.04v5.72h-.45c-1.01-4.65-3.27-6.98-6.78-6.98-1.47,0-2.56.44-3.27,1.31-.71.87-1.06,1.97-1.06,3.31s.38,2.61,1.14,3.9c.76,1.29,1.68,2.5,2.76,3.61,1.07,1.12,2.16,2.25,3.25,3.41,1.09,1.16,2.01,2.47,2.78,3.94.76,1.47,1.14,2.99,1.14,4.57,0,2.07-.65,3.86-1.94,5.37-1.29,1.51-3.27,2.27-5.94,2.27Z"/>
        <path d="m24.17,168.86c-2.26,0-3.39-1.85-3.39-5.55v-16.78h-1.63v-.33l4.9-6.49h.29v5.59h4.74v1.23h-4.74v16.58c0,1.93.49,2.9,1.47,2.9,1.58,0,2.98-2.08,4.21-6.25h.49c-1.39,6.07-3.5,9.1-6.33,9.1Z"/>
        <path d="m39.4,168.91c-3.92,0-5.88-2.64-5.88-7.92v-15.68h3.55v15.52c0,2.01.31,3.48.92,4.39.61.91,1.57,1.37,2.88,1.37,1.71,0,3.06-.88,4.02-2.65.97-1.77,1.45-4.01,1.45-6.74v-11.88h3.55v23.4h-3.39l-.16-7.88c-.44,2.42-1.27,4.38-2.49,5.86-1.22,1.48-2.71,2.23-4.45,2.23Z"/>
        <path d="m67.98,168.7v-8.12c-.41,2.37-1.18,4.35-2.33,5.94-1.14,1.59-2.59,2.39-4.33,2.39-2.07,0-3.74-1.08-5.02-3.23-1.28-2.15-1.92-5.04-1.92-8.66s.68-6.68,2.04-8.84c1.36-2.16,3.09-3.25,5.19-3.25,1.63,0,3,.69,4.1,2.06,1.1,1.38,1.86,3.1,2.27,5.17v-15.72h3.55v32.25h-3.55Zm-9.96-11.96c0,2.97.42,5.37,1.27,7.21.84,1.84,2.03,2.76,3.55,2.76,1.63,0,2.88-1,3.76-3,.87-2,1.31-4.51,1.31-7.53v-.08c0-2.8-.46-5.02-1.39-6.66-.93-1.63-2.14-2.45-3.63-2.45s-2.75.91-3.59,2.72-1.27,4.16-1.27,7.04Z"/>
        <path d="m77.08,139.43c0-.65.21-1.19.63-1.61.42-.42.96-.63,1.61-.63s1.22.21,1.63.63c.41.42.61.96.61,1.61s-.21,1.24-.61,1.67-.95.65-1.63.65-1.19-.22-1.61-.65c-.42-.44-.63-.99-.63-1.67Zm.49,29.27v-23.4h3.55v23.4h-3.55Z"/>
        <path d="m94.07,168.95c-2.5,0-4.56-1.12-6.17-3.35-1.61-2.23-2.41-5.04-2.41-8.41s.86-6.37,2.57-8.74c1.71-2.37,3.88-3.55,6.49-3.55s4.56,1.1,6.17,3.31c1.61,2.2,2.41,5,2.41,8.37s-.86,6.42-2.57,8.8-3.88,3.57-6.49,3.57Zm-4.86-12.86c0,3.59.43,6.51,1.29,8.76.86,2.25,2.14,3.37,3.86,3.37,1.61,0,2.86-.98,3.76-2.94.9-1.96,1.35-4.48,1.35-7.55,0-3.59-.43-6.5-1.29-8.74-.86-2.23-2.14-3.35-3.86-3.35-1.61,0-2.86.98-3.76,2.94s-1.35,4.46-1.35,7.51Z"/>
        <path d="m116.36,168.7v-31.52h3.76c4.68,0,8.55,1.38,11.62,4.14,3.06,2.76,4.59,6.58,4.59,11.45s-1.48,8.57-4.43,11.51c-2.95,2.94-6.76,4.41-11.41,4.41h-4.12Zm3.76-.78h.2c3.76,0,6.73-1.37,8.92-4.1s3.29-6.43,3.29-11.08-1.13-8.15-3.39-10.74c-2.26-2.59-5.27-3.93-9.02-4.04v29.97Z"/>
        <path d="m143.39,168.82c-1.23,0-2.2-.37-2.92-1.12-.72-.75-1.08-1.78-1.08-3.08,0-1.66.61-3.21,1.82-4.63,1.21-1.43,3.07-3.07,5.57-4.92,1.71-1.23,2.95-2.12,3.71-2.7-.33-3.54-1.73-5.31-4.21-5.31-1.55,0-2.82.61-3.82,1.82-.99,1.21-1.63,2.76-1.9,4.63h-.53c.16-1.52.52-2.91,1.06-4.14.54-1.24,1.39-2.29,2.55-3.16s2.54-1.31,4.14-1.31c3.46,0,5.46,2.38,6,7.15l1.71,16.66h-3.51l-1.1-11.76h-.12c-.22,1.58-.5,3.03-.86,4.35s-.82,2.57-1.39,3.76c-.57,1.18-1.3,2.11-2.18,2.78-.88.67-1.87,1-2.96,1Zm-1.14-6.21c0,1.01.24,1.78.71,2.33.48.54,1.12.82,1.94.82,1.69,0,3.04-1.14,4.06-3.43,1.02-2.29,1.6-4.89,1.73-7.8l-.16-1.51-1.71,1.27c-2.37,1.71-4.06,3.19-5.06,4.43-1.01,1.24-1.51,2.54-1.51,3.9Z"/>
        <path d="m168.91,177.32c-2.34,0-4.31-.76-5.9-2.29-1.59-1.52-2.7-3.36-3.33-5.51h.49c.6,1.82,1.51,3.3,2.74,4.43,1.23,1.13,2.75,1.7,4.57,1.7,3.51,0,5.27-2.59,5.27-7.76v-8.21c-.35,2.42-1.12,4.45-2.29,6.08-1.17,1.63-2.67,2.45-4.49,2.45-2.04,0-3.7-1.04-4.98-3.12s-1.92-4.89-1.92-8.43.68-6.44,2.04-8.55c1.36-2.11,3.09-3.16,5.18-3.16,1.69,0,3.1.71,4.23,2.14,1.13,1.43,1.87,3.21,2.22,5.33v-7.1h3.55v22.01c0,3.43-.67,5.95-2.02,7.57-1.35,1.62-3.14,2.43-5.37,2.43Zm-6.25-20.95c0,2.91.43,5.26,1.29,7.04s2.05,2.67,3.57,2.67c1.61,0,2.85-.98,3.74-2.94s1.33-4.4,1.33-7.31v-.08c0-2.75-.46-4.91-1.39-6.49-.93-1.58-2.14-2.37-3.63-2.37s-2.76.88-3.61,2.65c-.86,1.77-1.29,4.04-1.29,6.82Z"/>
        <path d="m187.98,168.91c-3.92,0-5.88-2.64-5.88-7.92v-15.68h3.55v15.52c0,2.01.31,3.48.92,4.39.61.91,1.57,1.37,2.88,1.37,1.71,0,3.05-.88,4.02-2.65.97-1.77,1.45-4.01,1.45-6.74v-11.88h3.55v23.4h-3.39l-.16-7.88c-.44,2.42-1.27,4.38-2.49,5.86-1.23,1.48-2.71,2.23-4.45,2.23Z"/>
        <path d="m210.8,168.91c-2.37,0-4.27-1.04-5.7-3.12-1.43-2.08-2.14-4.82-2.14-8.23,0-3.73.78-6.77,2.35-9.12s3.54-3.53,5.94-3.53c2.04,0,3.67.72,4.88,2.16,1.21,1.44,1.94,3.54,2.18,6.29h-11.96c-.05.93-.08,1.66-.08,2.2,0,3.4.49,6.04,1.47,7.92.98,1.88,2.37,2.82,4.16,2.82,1.58,0,2.9-.73,3.96-2.2,1.06-1.47,1.81-3.5,2.25-6.08h.53c-1.14,7.27-3.76,10.9-7.84,10.9Zm-4.37-16.37h8.62c-.14-2.07-.55-3.73-1.25-4.98-.69-1.25-1.63-1.88-2.8-1.88s-2.23.59-3.02,1.78c-.79,1.18-1.31,2.88-1.55,5.08Z"/>
        <path d="m226.27,168.86c-2.26,0-3.39-1.85-3.39-5.55v-16.78h-1.63v-.33l4.9-6.49h.29v5.59h4.74v1.23h-4.74v16.58c0,1.93.49,2.9,1.47,2.9,1.58,0,2.98-2.08,4.21-6.25h.49c-1.39,6.07-3.5,9.1-6.33,9.1Z"/>
    </g>
</svg>
