<?xml version="1.0" standalone="no"?>
<!DOCTYPE svg PUBLIC "-//W3C//DTD SVG 20010904//EN"
 "http://www.w3.org/TR/2001/REC-SVG-20010904/DTD/svg10.dtd">
<svg version="1.0" xmlns="http://www.w3.org/2000/svg"
 width="84.000000pt" height="84.000000pt" viewBox="0 0 84.000000 84.000000"
 preserveAspectRatio="xMidYMid meet">
<metadata>
Created by potrace 1.14, written by Peter Selinger 2001-2017
</metadata>
<g transform="translate(0.000000,84.000000) scale(0.100000,-0.100000)"
fill="#000000" stroke="none">
<path d="M330 807 c-79 -18 -142 -53 -200 -110 -154 -154 -151 -405 6 -560
225 -222 607 -97 665 217 49 267 -206 513 -471 453z m181 -33 c198 -57 311
-264 250 -460 -26 -86 -75 -153 -145 -199 -206 -138 -483 -39 -558 198 -46
145 15 323 140 409 91 63 208 82 313 52z"/>
<path d="M361 533 c-49 -26 -74 -64 -74 -113 0 -51 25 -88 76 -113 65 -33 145
7 168 83 10 32 9 44 -7 76 -35 71 -103 98 -163 67z m69 -113 c0 -13 -7 -20
-20 -20 -13 0 -20 7 -20 20 0 13 7 20 20 20 13 0 20 -7 20 -20z"/>
<path d="M100 508 c-14 -23 -20 -51 -20 -89 0 -58 16 -119 31 -119 5 0 4 12
-1 26 -15 38 -12 140 4 179 19 44 12 45 -14 3z"/>
<path d="M710 514 c15 -38 12 -150 -5 -192 l-15 -37 20 23 c41 50 47 138 13
205 -17 34 -26 35 -13 1z"/>
<path d="M131 496 c-28 -34 -21 -152 10 -171 5 -4 5 5 -1 20 -13 34 -13 96 0
131 12 32 8 41 -9 20z"/>
<path d="M685 433 c0 -43 -4 -87 -9 -98 -8 -19 -8 -19 9 -3 24 22 31 103 13
146 -13 33 -13 31 -13 -45z"/>
<path d="M156 464 c-8 -22 -7 -87 2 -101 4 -6 7 18 7 53 0 35 0 64 -1 64 -1 0
-5 -7 -8 -16z"/>
<path d="M655 413 c0 -61 0 -63 12 -37 7 16 10 43 7 59 -11 54 -19 45 -19 -22z"/>
</g>
</svg>
